<svg width="17" height="18" viewBox="0 0 17 18" fill="none" xmlns="http://www.w3.org/2000/svg">
<path d="M17 13C17 14.1045 16.1045 15 15 15H2C0.8955 15 0 14.1045 0 13V3.1565C0 2.052 2.8955 0 4 0H14.3125C15.8595 0 17 1.156 17 2.6875V13Z" fill="#226699"/>
<path d="M16 15C16 16.1045 15.1045 17 14 17H3.00003C1.89553 17 1.00003 16.1045 1.00003 15V3C1.00003 0.940502 0.989531 1 3.50003 1H14C15.1045 1 16 1.8955 16 3V15Z" fill="#CCD6DD"/>
<path d="M15 15.5C15 16.3285 14.3285 17 13.5 17H1.5C0.6715 17 0 16.3285 0 15.5V3.49999C0 2.67149 0.6715 1.99999 1.5 1.99999H13.5C14.3285 1.99999 15 2.67149 15 3.49999V15.5Z" fill="#E1E8ED"/>
<path d="M15 16C15 17.1045 14.1045 18 13 18H2.49997C1.39547 18 0.499969 17.1045 0.499969 16V5C0.499969 3.8955 1.39547 3 2.49997 3H13C14.1045 3 15 3.8955 15 5V16Z" fill="#3B88C3"/>
<path d="M14 16C14 17.1045 13.1045 18 12 18L2.49997 18C1.39547 18 0.499969 17.1045 0.499969 16V6.00001C0.499969 4.89551 1.39547 4.00001 2.49997 4.00001H12.1675C13.272 4.00001 14 4.72801 14 5.83251V16Z" fill="#55ACEE"/>
<path d="M2.49997 3C1.65597 3 1.6345 2.039 2 1.625C2.416 1.1545 3.0625 1 4.219 1H5V0H3.6405C1.656 0 0 1.25 0 2.6875V16C0 17.1045 0.8955 18 2 18H3V3H2.49997Z" fill="#226699"/>
</svg>
