<svg width="15" height="11" viewBox="0 0 15 11" fill="none" xmlns="http://www.w3.org/2000/svg">
<path d="M5.114 10.8576C4.98446 10.8576 4.86301 10.8372 4.74965 10.7964C4.6363 10.7562 4.53104 10.6876 4.43388 10.5904L0.256017 6.41254C0.0778914 6.23441 -0.00728528 6.0035 0.000487491 5.71979C0.008908 5.43673 0.102181 5.20614 0.280307 5.02801C0.458433 4.84989 0.685139 4.76082 0.960425 4.76082C1.23571 4.76082 1.46242 4.84989 1.64054 5.02801L5.114 8.50147L13.3483 0.267189C13.5264 0.0890631 13.7573 0 14.041 0C14.3241 0 14.5547 0.0890631 14.7328 0.267189C14.9109 0.445315 15 0.675907 15 0.958966C15 1.24267 14.9109 1.47359 14.7328 1.65171L5.79412 10.5904C5.69696 10.6876 5.5917 10.7562 5.47835 10.7964C5.365 10.8372 5.24355 10.8576 5.114 10.8576Z" fill="#1C1B1F"/>
</svg>
