<svg width="20" height="20" viewBox="0 0 20 20" fill="none" xmlns="http://www.w3.org/2000/svg">
<path d="M10 20C15.5228 20 20 15.5228 20 10C20 4.47715 15.5228 0 10 0C4.47715 0 0 4.47715 0 10C0 15.5228 4.47715 20 10 20Z" fill="#88C9F9"/>
<path d="M16.7389 13.1933C16.1739 12.9767 16.2744 13.0556 15.9261 12.315C15.5778 11.575 15.3667 11.3367 14.5833 11.25C13.7994 11.1639 13.8289 11.225 13.6111 10.8333C13.3933 10.4411 12.51 10.9394 11.9444 11.1578C11.3772 11.3756 11.5172 11.85 11.3428 11.8056C11.1678 11.7622 10.7278 11.6494 10.2911 11.3017C9.85555 10.9528 10.615 10.6806 10.8333 10.4633C11.0517 10.245 10.4222 10.3639 10.2039 10.2322C9.98555 10.1022 9.595 10.4939 9.24667 10.1444C8.89778 9.79611 9.11611 9.27333 9.07278 8.83777C9.02889 8.40166 9.63833 8.315 10.0306 8.22777C10.4222 8.14111 10.7267 8.22833 10.7267 8.75055C10.7267 9.27333 11.2061 9.44777 11.0756 8.83722C10.945 8.22666 11.2061 8.05333 11.3811 7.74833C11.555 7.44333 11.86 7.00722 12.2517 6.35389C12.6439 5.70055 12.9056 6.005 13.3844 6.05166C13.8639 6.09889 13.9944 6.00555 14.3428 6.04944C14.69 6.09333 14.3428 5.61389 14.4739 5.135C14.6039 4.65611 15.0833 4.74277 15.5633 4.87389C16.0422 5.00444 15.0833 4.26333 14.9094 3.87166C14.7344 3.47944 14.2556 3.87166 13.9517 3.21833C13.6444 2.565 13.2161 2.14222 12.8239 2.08389C12.4317 2.025 12.9489 2.91389 12.6439 3.39277C12.3378 3.87166 11.8689 3.79666 11.3883 3.79666C10.91 3.79666 10.4656 3.39277 10.8144 2.78277C11.1622 2.17333 11.8272 2.23611 12.1756 1.71333C12.5244 1.19111 10.9367 1.23889 10.37 1.065C9.80333 0.890553 9.12333 0.892219 8.55722 1.32777C7.99055 1.76277 6.77889 1.89889 6.29944 2.07277C5.82055 2.24666 5.73444 1.78389 5.64778 1.435C5.60889 1.28 5.43222 1.23111 5.18333 1.23666C3.95 1.91666 2.88167 2.85444 2.03555 3.97055C2.16722 4.41889 2.805 3.86555 2.93 3.74055C3.06055 3.61 3.71389 3.78444 3.80055 4.26333C3.88778 4.74222 3.84444 5.26611 3.67055 5.70166C3.49611 6.13666 4.10611 6.74666 4.45444 7.35666C4.80333 7.96722 5.195 7.96666 5.36944 7.96666C5.54333 7.96666 6.54555 8.35889 6.50167 8.83777C6.45833 9.31722 7.41667 9.75222 7.80889 10.0572C8.20111 10.3633 8.44889 10.6639 8.95778 10.7517C9.46722 10.8394 10.0628 11.6722 10.3239 11.76C10.5244 11.8267 10.8639 12.1472 11.0689 12.2467C10.7994 12.5878 10.2778 13.2883 10.2778 13.6111C10.2778 14.0478 10.8472 14.7339 11.065 14.9078C11.2822 15.0811 11.9078 15.2133 12.0372 15.6483C12.1683 16.0839 11.9461 17.55 11.555 17.9417C11.1617 18.3333 11.0189 19.2594 11.0189 19.2594C11.0189 19.2594 11.1572 19.56 11.6206 19.2594C12.1328 18.9278 12.9906 17.9833 13.3333 17.7778C13.9867 17.385 14.6217 16.9083 15.2317 16.3428C15.8417 15.7767 15.6206 15.38 15.9261 14.815C16.2311 14.2489 16.6256 14.2744 17.1478 13.7967C17.6711 13.3167 17.3056 13.4117 16.7389 13.1933V13.1933Z" fill="#5C913B"/>
</svg>
