<svg width="182" height="72" viewBox="0 0 182 72" fill="none" xmlns="http://www.w3.org/2000/svg">
<path d="M62.927 42.979C62.993 42.781 63.048 42.539 63.092 42.253C63.136 41.945 63.169 41.637 63.191 41.329C63.213 41.021 63.213 40.724 63.191 40.438C63.191 40.152 63.147 39.921 63.059 39.745C62.883 39.415 62.608 39.294 62.234 39.382L62.102 39.118C62.564 38.766 63.092 38.491 63.686 38.293C64.28 38.095 64.852 38.007 65.402 38.029C66.216 38.029 66.876 38.216 67.382 38.59C67.91 38.964 68.295 39.448 68.537 40.042C68.779 40.614 68.9 41.252 68.9 41.956C68.922 42.638 68.845 43.309 68.669 43.969L64.907 58.093C64.841 58.335 64.775 58.61 64.709 58.918C64.665 59.226 64.654 59.534 64.676 59.842C64.698 60.128 64.775 60.392 64.907 60.634C65.061 60.876 65.292 61.041 65.6 61.129C65.996 61.239 66.359 61.195 66.689 60.997C67.041 60.777 67.36 60.491 67.646 60.139C67.932 59.765 68.174 59.369 68.372 58.951C68.57 58.533 68.713 58.17 68.801 57.862L69.527 57.994C69.241 59.094 68.889 60.007 68.471 60.733C68.075 61.459 67.613 62.042 67.085 62.482C66.579 62.922 66.007 63.23 65.369 63.406C64.731 63.582 64.038 63.659 63.29 63.637C61.882 63.615 60.826 63.307 60.122 62.713C59.418 62.119 59 61.338 58.868 60.37C58.824 59.864 58.824 59.358 58.868 58.852C58.912 58.346 59 57.851 59.132 57.367L62.927 42.979ZM75.2979 41.23C75.7379 41.23 76.1559 41.318 76.5519 41.494C76.9479 41.648 77.2889 41.879 77.5749 42.187C77.8609 42.473 78.0809 42.814 78.2349 43.21C78.4109 43.584 78.4989 43.991 78.4989 44.431C78.4989 45.333 78.1909 46.092 77.5749 46.708C76.9589 47.324 76.1999 47.632 75.2979 47.632C74.8579 47.632 74.4399 47.555 74.0439 47.401C73.6699 47.225 73.3289 46.994 73.0209 46.708C72.7349 46.422 72.5039 46.081 72.3279 45.685C72.1739 45.289 72.0969 44.871 72.0969 44.431C72.0969 43.991 72.1739 43.584 72.3279 43.21C72.5039 42.814 72.7349 42.473 73.0209 42.187C73.3289 41.879 73.6699 41.648 74.0439 41.494C74.4399 41.318 74.8579 41.23 75.2979 41.23ZM79.4229 58.06C79.1149 59.16 78.7519 60.073 78.3339 60.799C77.9379 61.503 77.4759 62.075 76.9479 62.515C76.4419 62.955 75.8699 63.263 75.2319 63.439C74.5939 63.615 73.9009 63.703 73.1529 63.703C71.3709 63.703 70.0949 63.296 69.3249 62.482C68.5769 61.668 68.3569 60.392 68.6649 58.654C68.7969 57.972 68.9839 57.213 69.2259 56.377C69.4679 55.541 69.6989 54.738 69.9189 53.968C70.1609 53.176 70.3589 52.472 70.5129 51.856C70.6669 51.24 70.7109 50.8 70.6449 50.536C70.4689 50.162 70.1939 50.03 69.8199 50.14L69.6879 49.909C70.3259 49.403 71.0519 49.062 71.8659 48.886C72.7019 48.71 73.4719 48.71 74.1759 48.886C74.5719 48.996 74.9349 49.15 75.2649 49.348C75.5949 49.524 75.8589 49.799 76.0569 50.173C76.2549 50.525 76.3649 50.987 76.3869 51.559C76.4089 52.109 76.2989 52.791 76.0569 53.605C76.0349 53.671 75.9799 53.847 75.8919 54.133C75.8259 54.419 75.7269 54.771 75.5949 55.189C75.4849 55.607 75.3639 56.047 75.2319 56.509C75.0999 56.971 74.9789 57.411 74.8689 57.829C74.7589 58.225 74.6599 58.577 74.5719 58.885C74.4839 59.171 74.4399 59.336 74.4399 59.38C74.3079 59.842 74.3409 60.227 74.5389 60.535C74.7589 60.843 75.0559 61.052 75.4299 61.162C75.8259 61.272 76.2109 61.228 76.5849 61.03C76.9809 60.81 77.3329 60.524 77.6409 60.172C77.9489 59.82 78.2129 59.446 78.4329 59.05C78.6749 58.632 78.8399 58.269 78.9279 57.961L79.3899 58.06H79.4229ZM84.625 59.05C84.427 59.732 84.383 60.293 84.493 60.733C84.603 61.151 84.812 61.415 85.12 61.525C85.428 61.657 85.802 61.613 86.242 61.393C86.682 61.173 87.133 60.755 87.595 60.139C88.079 59.523 88.53 58.687 88.948 57.631C89.388 56.553 89.762 55.233 90.07 53.671C90.29 52.549 90.389 51.537 90.367 50.635C90.367 49.711 90.213 49.084 89.905 48.754L90.037 48.193C90.521 48.149 90.961 48.116 91.357 48.094C91.775 48.05 92.193 48.028 92.611 48.028C93.447 48.05 94.129 48.215 94.657 48.523C95.207 48.831 95.614 49.249 95.878 49.777C96.142 50.283 96.285 50.877 96.307 51.559C96.329 52.241 96.252 52.956 96.076 53.704C95.812 54.826 95.361 55.981 94.723 57.169C94.085 58.335 93.337 59.413 92.479 60.403C91.621 61.371 90.686 62.174 89.674 62.812C88.684 63.428 87.683 63.747 86.671 63.769H83.767C82.997 63.769 82.271 63.637 81.589 63.373C80.907 63.087 80.324 62.691 79.84 62.185C79.378 61.657 79.059 61.03 78.883 60.304C78.685 59.556 78.707 58.72 78.949 57.796L80.17 53.341C80.236 53.143 80.291 52.901 80.335 52.615C80.379 52.329 80.412 52.032 80.434 51.724C80.456 51.416 80.456 51.119 80.434 50.833C80.434 50.547 80.39 50.316 80.302 50.14C80.148 49.788 79.873 49.656 79.477 49.744L79.345 49.48C79.807 49.15 80.335 48.886 80.929 48.688C81.523 48.49 82.095 48.391 82.645 48.391C83.459 48.391 84.119 48.578 84.625 48.952C85.153 49.326 85.538 49.81 85.78 50.404C86.022 50.976 86.143 51.614 86.143 52.318C86.165 53.022 86.088 53.704 85.912 54.364L84.625 59.05ZM97.553 54.133C97.905 53.121 98.411 52.252 99.071 51.526C99.731 50.8 100.479 50.206 101.315 49.744C102.151 49.282 103.031 48.941 103.955 48.721C104.901 48.501 105.836 48.391 106.76 48.391C107.728 48.391 108.597 48.534 109.367 48.82C110.137 49.106 110.786 49.48 111.314 49.942C111.842 50.404 112.227 50.932 112.469 51.526C112.711 52.12 112.799 52.725 112.733 53.341C112.667 53.935 112.436 54.518 112.04 55.09C111.644 55.662 111.061 56.179 110.291 56.641C109.521 57.103 108.553 57.477 107.387 57.763C106.243 58.027 104.879 58.137 103.295 58.093C103.647 59.633 104.736 60.634 106.562 61.096C107.464 61.338 108.3 61.382 109.07 61.228C109.84 61.052 110.522 60.755 111.116 60.337C111.732 59.919 112.249 59.402 112.667 58.786C113.107 58.148 113.437 57.466 113.657 56.74L114.317 56.938C114.053 58.06 113.591 59.039 112.931 59.875C112.271 60.711 111.49 61.415 110.588 61.987C109.708 62.537 108.729 62.955 107.651 63.241C106.595 63.527 105.517 63.659 104.417 63.637C102.965 63.615 101.7 63.384 100.622 62.944C99.544 62.482 98.697 61.844 98.081 61.03C97.465 60.194 97.102 59.193 96.992 58.027C96.882 56.861 97.069 55.563 97.553 54.133ZM103.163 57.301C103.867 57.279 104.494 57.081 105.044 56.707C105.594 56.333 106.067 55.882 106.463 55.354C106.859 54.804 107.178 54.221 107.42 53.605C107.662 52.967 107.827 52.373 107.915 51.823C108.003 51.273 108.003 50.811 107.915 50.437C107.849 50.041 107.706 49.81 107.486 49.744C107.222 49.678 106.914 49.711 106.562 49.843C106.232 49.953 105.88 50.195 105.506 50.569C105.132 50.943 104.769 51.46 104.417 52.12C104.065 52.78 103.757 53.616 103.493 54.628C103.361 55.134 103.262 55.607 103.196 56.047C103.13 56.487 103.119 56.905 103.163 57.301ZM118.705 57.961C119.497 57.961 120.135 58.236 120.619 58.786C121.125 59.336 121.334 60.007 121.246 60.799C121.202 61.195 121.081 61.569 120.883 61.921C120.707 62.251 120.476 62.548 120.19 62.812C119.904 63.076 119.585 63.285 119.233 63.439C118.881 63.571 118.507 63.637 118.111 63.637C117.319 63.637 116.67 63.362 116.164 62.812C115.68 62.262 115.482 61.591 115.57 60.799C115.658 60.007 115.999 59.336 116.593 58.786C117.209 58.236 117.913 57.961 118.705 57.961ZM136.178 48.886L137.762 42.979C137.828 42.781 137.883 42.539 137.927 42.253C137.971 41.967 138.004 41.67 138.026 41.362C138.048 41.054 138.048 40.757 138.026 40.471C138.026 40.185 137.982 39.954 137.894 39.778C137.74 39.426 137.465 39.294 137.069 39.382L136.937 39.118C137.399 38.788 137.927 38.524 138.521 38.326C139.115 38.128 139.687 38.029 140.237 38.029C141.051 38.029 141.711 38.216 142.217 38.59C142.745 38.964 143.13 39.448 143.372 40.042C143.614 40.614 143.735 41.252 143.735 41.956C143.735 42.66 143.647 43.342 143.471 44.002L139.676 58.06C139.61 58.302 139.544 58.577 139.478 58.885C139.434 59.193 139.423 59.501 139.445 59.809C139.467 60.095 139.544 60.37 139.676 60.634C139.83 60.876 140.061 61.041 140.369 61.129C140.765 61.239 141.139 61.195 141.491 60.997C141.843 60.777 142.151 60.491 142.415 60.139C142.701 59.765 142.943 59.369 143.141 58.951C143.339 58.533 143.482 58.17 143.57 57.862L144.329 57.994C144.021 59.094 143.658 60.007 143.24 60.733C142.844 61.459 142.382 62.042 141.854 62.482C141.348 62.922 140.776 63.23 140.138 63.406C139.5 63.582 138.807 63.659 138.059 63.637C137.553 63.637 137.069 63.571 136.607 63.439C136.145 63.285 135.716 63.098 135.32 62.878C134.946 62.636 134.638 62.35 134.396 62.02C134.154 61.69 134 61.327 133.934 60.931C133.56 61.877 132.955 62.57 132.119 63.01C131.283 63.45 130.381 63.659 129.413 63.637C128.555 63.637 127.708 63.439 126.872 63.043C126.058 62.647 125.387 62.053 124.859 61.261C124.353 60.469 124.056 59.479 123.968 58.291C123.858 57.103 124.089 55.717 124.661 54.133C125.563 51.735 126.982 50.085 128.918 49.183C130.854 48.259 133.12 48.127 135.716 48.787C135.782 48.809 135.848 48.831 135.914 48.853C136.002 48.853 136.079 48.864 136.145 48.886H136.178ZM131.492 60.568C131.822 60.656 132.108 60.601 132.35 60.403C132.592 60.205 132.812 59.941 133.01 59.611C133.208 59.281 133.373 58.918 133.505 58.522C133.637 58.104 133.758 57.719 133.868 57.367L135.914 49.711C135.848 49.711 135.782 49.711 135.716 49.711C135.65 49.689 135.584 49.678 135.518 49.678C134.902 49.656 134.33 49.799 133.802 50.107C133.296 50.393 132.834 50.778 132.416 51.262C132.02 51.724 131.668 52.263 131.36 52.879C131.052 53.473 130.799 54.056 130.601 54.628C130.381 55.222 130.216 55.849 130.106 56.509C129.996 57.147 129.963 57.752 130.007 58.324C130.051 58.874 130.183 59.358 130.403 59.776C130.645 60.172 131.008 60.436 131.492 60.568ZM156.664 49.216C157.588 49.15 158.369 49.26 159.007 49.546C159.755 49.854 160.228 50.393 160.426 51.163C160.646 51.933 160.58 52.901 160.227 54.067C160.206 54.155 160.118 54.463 159.964 54.991C159.81 55.519 159.645 56.091 159.469 56.707C159.315 57.323 159.161 57.895 159.007 58.423C158.875 58.951 158.798 59.248 158.776 59.314C158.644 59.798 158.677 60.194 158.875 60.502C159.073 60.81 159.37 61.019 159.766 61.129C160.162 61.239 160.536 61.184 160.888 60.964C161.24 60.744 161.559 60.447 161.845 60.073C162.131 59.699 162.373 59.303 162.571 58.885C162.769 58.467 162.912 58.104 163 57.796L163.726 57.994C163.418 59.094 163.055 60.007 162.637 60.733C162.241 61.437 161.779 62.009 161.251 62.449C160.745 62.889 160.173 63.197 159.535 63.373C158.897 63.549 158.204 63.637 157.456 63.637C155.212 63.637 153.782 62.988 153.166 61.69C152.66 62.306 152.044 62.79 151.318 63.142C150.614 63.494 149.767 63.67 148.777 63.67C147.655 63.67 146.72 63.406 145.972 62.878C145.224 62.35 144.641 61.679 144.223 60.865C143.827 60.029 143.596 59.116 143.529 58.126C143.463 57.114 143.551 56.135 143.794 55.189C144.19 53.803 144.74 52.626 145.444 51.658C146.148 50.69 146.984 49.942 147.952 49.414C148.942 48.864 150.031 48.534 151.219 48.424C152.429 48.314 153.716 48.435 155.08 48.787C155.344 48.875 155.608 48.963 155.872 49.051C156.136 49.139 156.389 49.194 156.631 49.216H156.664ZM152.836 59.71C152.836 59.534 152.847 59.358 152.869 59.182C152.891 58.984 152.924 58.797 152.968 58.621C153.1 57.939 153.287 57.158 153.529 56.278C153.793 55.398 154.046 54.551 154.288 53.737C154.53 52.901 154.728 52.153 154.882 51.493C155.036 50.833 155.08 50.371 155.014 50.107C154.904 49.843 154.728 49.711 154.486 49.711C153.826 49.777 153.232 50.019 152.704 50.437C152.198 50.833 151.736 51.328 151.318 51.922C150.922 52.494 150.581 53.121 150.295 53.803C150.031 54.463 149.822 55.079 149.668 55.651C149.228 57.235 149.107 58.467 149.305 59.347C149.503 60.205 149.888 60.755 150.46 60.997C150.966 61.195 151.45 61.173 151.912 60.931C152.396 60.689 152.704 60.282 152.836 59.71ZM172.466 59.083L174.479 51.592C174.897 49.986 175.645 49.029 176.723 48.721C177.801 48.391 179.385 48.787 181.475 49.909L181.343 50.272C181.101 50.382 180.903 50.591 180.749 50.899C180.617 51.207 180.463 51.669 180.287 52.285L177.119 64.033C177.075 64.209 176.998 64.462 176.888 64.792C176.8 65.122 176.723 65.375 176.657 65.551C176.305 66.563 175.81 67.432 175.172 68.158C174.534 68.884 173.808 69.478 172.994 69.94C172.202 70.402 171.344 70.743 170.42 70.963C169.496 71.183 168.572 71.293 167.648 71.293C166.922 71.293 166.207 71.194 165.503 70.996C164.821 70.82 164.205 70.545 163.655 70.171C163.127 69.797 162.676 69.324 162.302 68.752C161.928 68.202 161.686 67.553 161.576 66.805C161.906 66.233 162.302 65.826 162.764 65.584C163.204 65.364 163.655 65.265 164.117 65.287C164.601 65.331 165.085 65.463 165.569 65.683C166.053 65.925 166.515 66.222 166.955 66.574C166.911 66.75 166.845 67.014 166.757 67.366C166.669 67.718 166.592 68.07 166.526 68.422C166.46 68.796 166.438 69.126 166.46 69.412C166.504 69.72 166.647 69.907 166.889 69.973C167.131 70.039 167.428 70.006 167.78 69.874C168.132 69.764 168.484 69.511 168.836 69.115C169.21 68.741 169.573 68.224 169.925 67.564C170.299 66.904 170.618 66.068 170.882 65.056C170.904 64.968 170.948 64.803 171.014 64.561C171.08 64.319 171.124 64.143 171.146 64.033L171.773 61.723C171.069 62.515 170.244 63.087 169.298 63.439C168.352 63.769 167.417 63.879 166.493 63.769C165.855 63.703 165.261 63.527 164.711 63.241C164.183 62.955 163.754 62.57 163.424 62.086C163.094 61.58 162.885 60.975 162.797 60.271C162.709 59.545 162.786 58.72 163.028 57.796L164.282 53.341C164.326 53.143 164.37 52.901 164.414 52.615C164.48 52.329 164.524 52.032 164.546 51.724C164.568 51.416 164.568 51.119 164.546 50.833C164.524 50.547 164.48 50.316 164.414 50.14C164.238 49.766 163.963 49.634 163.589 49.744L163.457 49.48C163.897 49.15 164.414 48.886 165.008 48.688C165.624 48.49 166.196 48.391 166.724 48.391C167.56 48.391 168.231 48.578 168.737 48.952C169.243 49.326 169.617 49.81 169.859 50.404C170.123 50.976 170.255 51.614 170.255 52.318C170.255 53.022 170.167 53.704 169.991 54.364L168.671 59.05C168.495 59.688 168.506 60.271 168.704 60.799C168.924 61.305 169.243 61.613 169.661 61.723C170.079 61.855 170.541 61.734 171.047 61.36C171.553 60.964 172.026 60.205 172.466 59.083Z" fill="black"/>
<path d="M67.356 29.918C66.916 29.302 66.476 28.631 66.036 27.905C65.596 27.179 65.156 26.486 64.716 25.826C64.078 24.836 63.803 23.923 63.891 23.087C63.979 22.229 64.298 21.492 64.848 20.876C65.398 20.238 66.124 19.743 67.026 19.391C67.928 19.039 68.885 18.863 69.897 18.863C70.623 18.863 71.327 18.984 72.009 19.226C72.713 19.446 73.34 19.787 73.89 20.249C74.44 20.689 74.88 21.228 75.21 21.866C75.562 22.482 75.738 23.186 75.738 23.978L75.309 24.11C75.199 23.296 74.957 22.603 74.583 22.031C74.209 21.459 73.78 21.019 73.296 20.711C72.812 20.403 72.317 20.227 71.811 20.183C71.327 20.139 70.931 20.238 70.623 20.48C70.249 20.766 70.051 21.228 70.029 21.866C70.029 22.482 70.304 23.175 70.854 23.945C71.228 24.517 71.657 25.188 72.141 25.958C72.625 26.728 73.065 27.432 73.461 28.07C74.077 29.038 74.33 29.929 74.22 30.743C74.11 31.535 73.758 32.228 73.164 32.822C72.57 33.394 71.8 33.845 70.854 34.175C69.93 34.483 68.962 34.637 67.95 34.637C67.268 34.637 66.608 34.549 65.97 34.373C65.332 34.175 64.771 33.867 64.287 33.449C63.803 33.009 63.407 32.448 63.099 31.766C62.813 31.062 62.67 30.193 62.67 29.159L63.231 29.06C63.231 30.05 63.396 30.864 63.726 31.502C64.056 32.118 64.441 32.58 64.881 32.888C65.343 33.196 65.816 33.361 66.3 33.383C66.784 33.405 67.18 33.306 67.488 33.086C67.862 32.822 68.06 32.426 68.082 31.898C68.104 31.37 67.851 30.71 67.323 29.918H67.356ZM88.3262 28.994C87.9962 30.028 87.5562 30.908 87.0062 31.634C86.4562 32.338 85.8402 32.91 85.1582 33.35C84.4982 33.79 83.7942 34.12 83.0462 34.34C82.2982 34.538 81.5612 34.637 80.8352 34.637C80.0432 34.637 79.3062 34.505 78.6242 34.241C77.9642 33.977 77.4032 33.581 76.9412 33.053C76.5012 32.525 76.2042 31.876 76.0502 31.106C75.8962 30.314 75.9512 29.401 76.2152 28.367L78.3932 20.249H76.5782L76.8752 18.962H78.7562L80.0762 13.979C80.1422 13.781 80.1972 13.539 80.2412 13.253C80.2852 12.967 80.3182 12.67 80.3402 12.362C80.3622 12.054 80.3622 11.757 80.3402 11.471C80.3402 11.185 80.2962 10.954 80.2082 10.778C80.0542 10.426 79.7792 10.294 79.3832 10.382L79.2512 10.118C79.7132 9.78801 80.2412 9.52401 80.8352 9.32601C81.4292 9.12801 82.0012 9.02901 82.5512 9.02901C83.3652 9.02901 84.0252 9.21601 84.5312 9.59001C85.0592 9.96401 85.4442 10.448 85.6862 11.042C85.9282 11.614 86.0492 12.252 86.0492 12.956C86.0712 13.66 85.9942 14.342 85.8182 15.002L84.7292 18.962H87.8312L87.5342 20.249H84.3662L81.9902 29.06C81.8142 29.676 81.8472 30.259 82.0892 30.809C82.3532 31.337 82.7382 31.689 83.2442 31.865C83.6182 31.975 84.0032 32.03 84.3992 32.03C84.8172 32.03 85.2242 31.931 85.6202 31.733C86.0162 31.513 86.3902 31.183 86.7422 30.743C87.1162 30.281 87.4462 29.654 87.7322 28.862L88.3262 28.994ZM100.819 20.216C101.743 20.15 102.524 20.26 103.162 20.546C103.91 20.854 104.383 21.393 104.581 22.163C104.801 22.933 104.735 23.901 104.383 25.067C104.361 25.155 104.273 25.463 104.119 25.991C103.965 26.519 103.8 27.091 103.624 27.707C103.47 28.323 103.316 28.895 103.162 29.423C103.03 29.951 102.953 30.248 102.931 30.314C102.799 30.798 102.832 31.194 103.03 31.502C103.228 31.81 103.525 32.019 103.921 32.129C104.317 32.239 104.691 32.184 105.043 31.964C105.395 31.744 105.714 31.447 106 31.073C106.286 30.699 106.528 30.303 106.726 29.885C106.924 29.467 107.067 29.104 107.155 28.796L107.881 28.994C107.573 30.094 107.21 31.007 106.792 31.733C106.396 32.437 105.934 33.009 105.406 33.449C104.9 33.889 104.328 34.197 103.69 34.373C103.052 34.549 102.359 34.637 101.611 34.637C99.3668 34.637 97.9368 33.988 97.3208 32.69C96.8148 33.306 96.1988 33.79 95.4728 34.142C94.7688 34.494 93.9218 34.67 92.9318 34.67C91.8098 34.67 90.8748 34.406 90.1268 33.878C89.3788 33.35 88.7958 32.679 88.3778 31.865C87.9818 31.029 87.7508 30.116 87.6848 29.126C87.6188 28.114 87.7068 27.135 87.9488 26.189C88.3448 24.803 88.8948 23.626 89.5988 22.658C90.3028 21.69 91.1388 20.942 92.1068 20.414C93.0968 19.864 94.1858 19.534 95.3738 19.424C96.5838 19.314 97.8708 19.435 99.2348 19.787C99.4988 19.875 99.7628 19.963 100.027 20.051C100.291 20.139 100.544 20.194 100.786 20.216H100.819ZM96.9908 30.71C96.9908 30.534 97.0018 30.358 97.0238 30.182C97.0458 29.984 97.0788 29.797 97.1228 29.621C97.2548 28.939 97.4418 28.158 97.6838 27.278C97.9478 26.398 98.2008 25.551 98.4428 24.737C98.6848 23.901 98.8828 23.153 99.0368 22.493C99.1908 21.833 99.2348 21.371 99.1688 21.107C99.0588 20.843 98.8828 20.711 98.6408 20.711C97.9808 20.777 97.3868 21.019 96.8588 21.437C96.3528 21.833 95.8908 22.328 95.4728 22.922C95.0768 23.494 94.7358 24.121 94.4498 24.803C94.1858 25.463 93.9768 26.079 93.8228 26.651C93.3828 28.235 93.2618 29.467 93.4598 30.347C93.6578 31.205 94.0428 31.755 94.6148 31.997C95.1208 32.195 95.6048 32.173 96.0668 31.931C96.5508 31.689 96.8588 31.282 96.9908 30.71ZM110.285 19.721C110.945 20.095 111.726 20.315 112.628 20.381C113.552 20.447 114.432 20.491 115.268 20.513C115.774 20.557 116.236 20.645 116.654 20.777C117.072 20.887 117.402 21.118 117.644 21.47C117.886 21.8 118.007 22.262 118.007 22.856C118.029 23.45 117.897 24.242 117.611 25.232C117.589 25.32 117.501 25.628 117.347 26.156C117.215 26.662 117.061 27.223 116.885 27.839C116.731 28.433 116.577 28.994 116.423 29.522C116.291 30.028 116.214 30.314 116.192 30.38C116.06 30.842 116.093 31.227 116.291 31.535C116.489 31.843 116.786 32.052 117.182 32.162C117.578 32.272 117.963 32.228 118.337 32.03C118.733 31.81 119.085 31.524 119.393 31.172C119.701 30.82 119.965 30.446 120.185 30.05C120.427 29.632 120.592 29.269 120.68 28.961L121.109 29.06C120.823 30.16 120.471 31.073 120.053 31.799C119.657 32.503 119.195 33.075 118.667 33.515C118.161 33.955 117.589 34.263 116.951 34.439C116.313 34.615 115.62 34.703 114.872 34.703C113.09 34.703 111.814 34.296 111.044 33.482C110.296 32.668 110.087 31.392 110.417 29.654C110.483 29.346 110.604 28.829 110.78 28.103C110.978 27.377 111.187 26.607 111.407 25.793C111.649 24.979 111.869 24.209 112.067 23.483C112.287 22.735 112.441 22.196 112.529 21.866C112.155 21.822 111.704 21.745 111.176 21.635C110.67 21.525 110.274 21.415 109.988 21.305C109.746 22.625 109.427 24.044 109.031 25.562C108.635 27.08 108.184 28.521 107.678 29.885L107.084 29.918C107.282 29.434 107.48 28.851 107.678 28.169C107.898 27.487 108.107 26.761 108.305 25.991C108.503 25.199 108.69 24.385 108.866 23.549C109.042 22.691 109.196 21.855 109.328 21.041C108.69 20.711 108.107 20.326 107.579 19.886C107.051 19.424 106.6 18.819 106.226 18.071C105.918 17.433 105.83 16.795 105.962 16.157C106.072 15.519 106.303 14.991 106.655 14.573C107.007 14.133 107.425 13.847 107.909 13.715C108.393 13.583 108.833 13.693 109.229 14.045C109.625 14.375 109.933 14.991 110.153 15.893C110.373 16.795 110.406 18.071 110.252 19.721H110.285ZM132.896 28.994C132.566 30.028 132.126 30.908 131.576 31.634C131.026 32.338 130.41 32.91 129.728 33.35C129.068 33.79 128.364 34.12 127.616 34.34C126.868 34.538 126.131 34.637 125.405 34.637C124.613 34.637 123.876 34.505 123.194 34.241C122.534 33.977 121.973 33.581 121.511 33.053C121.071 32.525 120.774 31.876 120.62 31.106C120.466 30.314 120.521 29.401 120.785 28.367L122.963 20.249H121.148L121.445 18.962H123.326L124.646 13.979C124.712 13.781 124.767 13.539 124.811 13.253C124.855 12.967 124.888 12.67 124.91 12.362C124.932 12.054 124.932 11.757 124.91 11.471C124.91 11.185 124.866 10.954 124.778 10.778C124.624 10.426 124.349 10.294 123.953 10.382L123.821 10.118C124.283 9.78801 124.811 9.52401 125.405 9.32601C125.999 9.12801 126.571 9.02901 127.121 9.02901C127.935 9.02901 128.595 9.21601 129.101 9.59001C129.629 9.96401 130.014 10.448 130.256 11.042C130.498 11.614 130.619 12.252 130.619 12.956C130.641 13.66 130.564 14.342 130.388 15.002L129.299 18.962H132.401L132.104 20.249H128.936L126.56 29.06C126.384 29.676 126.417 30.259 126.659 30.809C126.923 31.337 127.308 31.689 127.814 31.865C128.188 31.975 128.573 32.03 128.969 32.03C129.387 32.03 129.794 31.931 130.19 31.733C130.586 31.513 130.96 31.183 131.312 30.743C131.686 30.281 132.016 29.654 132.302 28.862L132.896 28.994ZM143.738 23.087C143.848 22.713 143.914 22.273 143.936 21.767C143.958 21.239 143.738 20.722 143.276 20.216L143.408 19.688C143.892 19.622 144.343 19.578 144.761 19.556C145.179 19.512 145.586 19.501 145.982 19.523C146.664 19.545 147.269 19.644 147.797 19.82C148.325 19.974 148.743 20.249 149.051 20.645C149.359 21.019 149.546 21.536 149.612 22.196C149.678 22.834 149.579 23.626 149.315 24.572C149.029 25.562 148.754 26.552 148.49 27.542C148.248 28.51 147.995 29.489 147.731 30.479C147.599 30.963 147.632 31.359 147.83 31.667C148.028 31.975 148.325 32.184 148.721 32.294C149.117 32.404 149.502 32.36 149.876 32.162C150.272 31.942 150.624 31.656 150.932 31.304C151.24 30.93 151.504 30.545 151.724 30.149C151.966 29.731 152.131 29.368 152.219 29.06L152.681 29.159C152.373 30.259 152.01 31.172 151.592 31.898C151.196 32.602 150.734 33.174 150.206 33.614C149.7 34.054 149.128 34.362 148.49 34.538C147.852 34.714 147.159 34.802 146.411 34.802C144.981 34.802 143.881 34.549 143.111 34.043C142.341 33.515 141.912 32.69 141.824 31.568C141.494 32.162 141.098 32.679 140.636 33.119C140.174 33.559 139.668 33.911 139.118 34.175C138.59 34.439 138.029 34.626 137.435 34.736C136.863 34.824 136.302 34.835 135.752 34.769C135.114 34.703 134.531 34.527 134.003 34.241C133.475 33.955 133.046 33.57 132.716 33.086C132.386 32.58 132.177 31.975 132.089 31.271C131.979 30.545 132.045 29.72 132.287 28.796L133.508 24.341C133.574 24.143 133.629 23.901 133.673 23.615C133.717 23.329 133.75 23.032 133.772 22.724C133.794 22.416 133.794 22.119 133.772 21.833C133.772 21.547 133.728 21.316 133.64 21.14C133.486 20.788 133.211 20.656 132.815 20.744L132.683 20.48C133.145 20.15 133.673 19.886 134.267 19.688C134.861 19.49 135.433 19.391 135.983 19.391C136.797 19.391 137.457 19.578 137.963 19.952C138.491 20.326 138.876 20.81 139.118 21.404C139.36 21.976 139.481 22.614 139.481 23.318C139.503 24.022 139.426 24.704 139.25 25.364L137.93 30.05C137.754 30.688 137.765 31.271 137.963 31.799C138.183 32.305 138.502 32.613 138.92 32.723C139.162 32.789 139.426 32.778 139.712 32.69C139.998 32.602 140.284 32.404 140.57 32.096C140.856 31.766 141.131 31.326 141.395 30.776C141.681 30.226 141.934 29.533 142.154 28.697C142.374 27.905 142.583 27.146 142.781 26.42C142.957 25.804 143.122 25.188 143.276 24.572C143.452 23.956 143.595 23.461 143.705 23.087H143.738ZM161.443 30.215C161.883 29.357 162.235 28.466 162.499 27.542C162.785 26.618 163.016 25.705 163.192 24.803C163.412 23.527 163.379 22.614 163.093 22.064C162.829 21.514 162.455 21.294 161.971 21.404C161.487 21.492 160.97 21.877 160.42 22.559C159.892 23.241 159.463 24.165 159.133 25.331V25.364C158.935 26.134 158.726 26.915 158.506 27.707C158.308 28.477 158.099 29.247 157.879 30.017C157.835 30.237 157.802 30.468 157.78 30.71C157.78 30.93 157.802 31.139 157.846 31.337C157.912 31.535 158.011 31.711 158.143 31.865C158.275 32.019 158.462 32.129 158.704 32.195C158.924 32.261 159.166 32.25 159.43 32.162C159.694 32.074 159.947 31.942 160.189 31.766C160.431 31.568 160.662 31.337 160.882 31.073C161.102 30.809 161.289 30.523 161.443 30.215ZM157.219 32.558C156.867 33.812 156.526 35.055 156.196 36.287C155.866 37.541 155.536 38.795 155.206 40.049C155.14 40.247 155.085 40.489 155.041 40.775C154.997 41.083 154.953 41.391 154.909 41.699C154.887 42.007 154.887 42.293 154.909 42.557C154.931 42.843 154.975 43.074 155.041 43.25C155.217 43.58 155.492 43.712 155.866 43.646L155.998 43.943C155.558 44.317 155.041 44.603 154.447 44.801C153.853 45.021 153.281 45.142 152.731 45.164C151.895 45.164 151.224 44.977 150.718 44.603C150.212 44.251 149.838 43.789 149.596 43.217C149.354 42.645 149.233 42.007 149.233 41.303C149.211 40.621 149.277 39.95 149.431 39.29L153.391 24.572C153.435 24.374 153.479 24.132 153.523 23.846C153.589 23.56 153.633 23.263 153.655 22.955C153.677 22.647 153.677 22.35 153.655 22.064C153.655 21.778 153.611 21.547 153.523 21.371C153.347 20.997 153.072 20.865 152.698 20.975L152.566 20.711C153.028 20.381 153.556 20.117 154.15 19.919C154.744 19.721 155.316 19.622 155.866 19.622C156.416 19.622 156.889 19.71 157.285 19.886C157.703 20.062 158.055 20.304 158.341 20.612C158.627 20.898 158.847 21.25 159.001 21.668C159.155 22.064 159.265 22.482 159.331 22.922C159.837 21.778 160.574 20.909 161.542 20.315C162.532 19.699 163.698 19.468 165.04 19.622C165.854 19.71 166.525 19.952 167.053 20.348C167.581 20.722 167.988 21.195 168.274 21.767C168.582 22.317 168.78 22.944 168.868 23.648C168.956 24.33 168.978 25.034 168.934 25.76C168.846 26.882 168.582 28.015 168.142 29.159C167.724 30.281 167.152 31.293 166.426 32.195C165.7 33.075 164.82 33.779 163.786 34.307C162.774 34.835 161.641 35.044 160.387 34.934C159.705 34.89 159.078 34.703 158.506 34.373C157.956 34.021 157.516 33.493 157.186 32.789L157.219 32.558ZM172.4 22.559L179.396 22.757L179.099 25.76L172.103 25.562L172.4 22.559Z" fill="black"/>
<path d="M27 65C41.9117 65 54 52.9117 54 38C54 23.0883 41.9117 11 27 11C12.0883 11 0 23.0883 0 38C0 52.9117 12.0883 65 27 65Z" fill="black"/>
<path d="M13 32.5L19.0622 43H6.93782L13 32.5Z" fill="white"/>
<path d="M32 32H20V37H32V32Z" fill="white"/>
<path d="M32 38H20V43H32V38Z" fill="white"/>
<path fill-rule="evenodd" clip-rule="evenodd" d="M45 32H33V43H45V38H38V37H45V32Z" fill="white"/>
</svg>
